<?xml version="1.0" encoding="UTF-8" standalone="no"?>
<svg
   xmlns:dc="http://purl.org/dc/elements/1.1/"
   xmlns:cc="http://creativecommons.org/ns#"
   xmlns:rdf="http://www.w3.org/1999/02/22-rdf-syntax-ns#"
   xmlns:svg="http://www.w3.org/2000/svg"
   xmlns="http://www.w3.org/2000/svg"
   xmlns:sodipodi="http://sodipodi.sourceforge.net/DTD/sodipodi-0.dtd"
   xmlns:inkscape="http://www.inkscape.org/namespaces/inkscape"
   version="1.1"
   viewBox="0 0 281.9 281.9"
   enable-background="new 0 0 281.9 281.9"
   id="svg2"
   inkscape:version="0.91 r13725"
   sodipodi:docname="power.svg">
  <metadata
     id="metadata16">
    <rdf:RDF>
      <cc:Work
         rdf:about="">
        <dc:format>image/svg+xml</dc:format>
        <dc:type
           rdf:resource="http://purl.org/dc/dcmitype/StillImage" />
      </cc:Work>
    </rdf:RDF>
  </metadata>
  <defs
     id="defs14" />
  <sodipodi:namedview
     pagecolor="#ffffff"
     bordercolor="#666666"
     borderopacity="1"
     objecttolerance="10"
     gridtolerance="10"
     guidetolerance="10"
     inkscape:pageopacity="0"
     inkscape:pageshadow="2"
     inkscape:window-width="1920"
     inkscape:window-height="1057"
     id="namedview12"
     showgrid="false"
     inkscape:zoom="1.9196447"
     inkscape:cx="-84.538898"
     inkscape:cy="87.517168"
     inkscape:window-x="1912"
     inkscape:window-y="-8"
     inkscape:window-maximized="1"
     inkscape:current-layer="svg2" />
  <g
     id="g4">
    <g
       id="g6">
      <path
         d="m203.594,36.543c-5.22-1.74-10.441,0-12.181,3.48-1.74,5.22 0,10.441 3.48,12.181 36.543,20.882 59.164,57.424 59.164,99.187 0,62.644-50.463,113.108-113.108,113.108s-113.107-50.463-113.107-113.108c0-41.763 22.621-80.046 59.164-99.187 3.48-3.48 5.22-8.701 3.48-12.181-3.48-3.48-8.701-5.22-12.181-3.48-41.763,24.362-67.865,67.865-67.865,114.848 0,71.345 59.164,130.509 130.509,130.509s130.509-59.164 130.509-130.509c0.001-48.723-26.101-92.226-67.864-114.848z"
         id="path8" />
      <path
         d="m 140.95,145.56045 c 5.22,0 8.701,-4.85169 8.701,-12.13062 l 0,-121.299212 C 149.651,4.8530838 146.171,0 140.95,0 c -5.22,0 -8.701,4.8516897 -8.701,12.130618 l 0,121.300602 c 0,7.27754 3.48,12.12923 8.701,12.12923 z"
         id="path10"
         inkscape:connector-curvature="0" />
    </g>
  </g>
</svg>
